<svg width="16" height="13" viewBox="0 0 16 13" fill="none" xmlns="http://www.w3.org/2000/svg">
<path d="M14.5057 1.82643L14.5214 1.86061L14.4905 1.8821L8.02572 6.3847L8 6.40262L7.97428 6.3847L1.50946 1.8821L1.47861 1.86061L1.49427 1.82643C1.5548 1.69428 1.6462 1.59128 1.76802 1.51875C1.88839 1.44708 2.02603 1.4058 2.17994 1.39405L2.17993 1.39392H2.18337H13.8166V1.39379L13.8201 1.39405C13.974 1.4058 14.1116 1.44708 14.232 1.51875C14.3538 1.59128 14.4452 1.69428 14.5057 1.82643ZM14.5244 3.51785L14.5951 3.46876V3.55481V10.8335C14.5951 11.0484 14.5193 11.2296 14.3679 11.3738C14.2177 11.517 14.034 11.5944 13.8191 11.6063L13.8191 11.6063H13.8166H2.18337V11.6064L2.18089 11.6063C1.96603 11.5944 1.78233 11.517 1.63207 11.3738C1.48067 11.2296 1.40489 11.0484 1.40489 10.8335V3.55481V3.46876L1.47557 3.51785L7.61547 7.78291C7.73315 7.85701 7.86101 7.89392 8 7.89392C8.139 7.89392 8.26686 7.85701 8.38453 7.78291L14.5244 3.51785ZM15.337 0.66661C14.9366 0.263788 14.4308 0.0563011 13.8162 0.0451221H2.18376C1.56921 0.0563011 1.06341 0.263788 0.663047 0.66661C0.26237 1.06974 0.0562554 1.56898 0.045 2.16721V10.833C0.0562554 11.4313 0.26237 11.9305 0.663047 12.3336C1.06342 12.7365 1.56922 12.9439 2.18378 12.9551H13.8162C14.4308 12.9439 14.9366 12.7365 15.337 12.3336C15.7376 11.9305 15.9437 11.4313 15.955 10.833V2.16722C15.9437 1.56899 15.7376 1.06975 15.337 0.66661Z" fill="#7F858D" stroke="white" stroke-width="0.09"/>
</svg>
